<svg width="927" height="486" viewBox="0 0 927 486" fill="none" xmlns="http://www.w3.org/2000/svg">
<g clip-path="url(#clip0_113_1027)">
<path d="M176.999 436.543C174.56 436.543 172.176 435.82 170.147 434.465C168.119 433.11 166.538 431.183 165.605 428.93C164.671 426.676 164.427 424.196 164.903 421.804C165.379 419.411 166.554 417.214 168.278 415.489C170.003 413.764 172.201 412.59 174.593 412.114C176.986 411.638 179.465 411.882 181.719 412.816C183.973 413.749 185.899 415.33 187.254 417.358C188.609 419.386 189.333 421.771 189.333 424.21C189.333 427.481 188.033 430.618 185.72 432.931C183.407 435.244 180.27 436.543 176.999 436.543ZM176.999 414.96C175.145 414.957 173.331 415.504 171.788 416.532C170.244 417.56 169.04 419.023 168.329 420.736C167.617 422.448 167.429 424.333 167.789 426.153C168.149 427.972 169.04 429.643 170.351 430.956C171.661 432.268 173.331 433.163 175.15 433.525C176.968 433.888 178.854 433.704 180.567 432.995C182.281 432.286 183.746 431.084 184.777 429.543C185.807 428.001 186.357 426.188 186.357 424.333C186.369 423.095 186.137 421.867 185.672 420.719C185.208 419.571 184.521 418.527 183.651 417.646C182.781 416.764 181.746 416.064 180.604 415.584C179.463 415.105 178.238 414.856 176.999 414.852V414.96Z" fill="white" fill-opacity="0.1"/>
<path d="M149.173 486C147.34 486.015 145.544 485.486 144.013 484.479C142.482 483.472 141.284 482.032 140.572 480.344C139.86 478.655 139.666 476.793 140.014 474.993C140.362 473.194 141.237 471.538 142.528 470.237C143.818 468.936 145.466 468.047 147.263 467.684C149.059 467.321 150.923 467.499 152.617 468.197C154.312 468.895 155.761 470.08 156.781 471.603C157.801 473.126 158.346 474.917 158.346 476.75C158.346 479.19 157.382 481.531 155.664 483.264C153.946 484.996 151.613 485.98 149.173 486ZM149.173 470.583C147.928 470.58 146.71 470.947 145.674 471.636C144.638 472.325 143.829 473.307 143.351 474.456C142.872 475.605 142.745 476.87 142.986 478.091C143.227 479.312 143.825 480.434 144.704 481.316C145.583 482.197 146.704 482.797 147.925 483.041C149.145 483.285 150.411 483.162 151.561 482.686C152.711 482.21 153.694 481.404 154.386 480.37C155.078 479.335 155.447 478.118 155.447 476.873C155.453 476.045 155.296 475.223 154.983 474.456C154.671 473.688 154.21 472.99 153.627 472.401C153.044 471.812 152.35 471.345 151.586 471.025C150.821 470.705 150.001 470.539 149.173 470.537V470.583Z" fill="white" fill-opacity="0.1"/>
<path d="M204.813 486C202.983 486 201.195 485.458 199.673 484.441C198.152 483.425 196.967 481.98 196.267 480.29C195.567 478.6 195.383 476.74 195.74 474.945C196.097 473.151 196.978 471.503 198.272 470.209C199.565 468.916 201.214 468.035 203.008 467.678C204.802 467.321 206.662 467.504 208.352 468.204C210.043 468.904 211.487 470.09 212.504 471.611C213.52 473.132 214.063 474.921 214.063 476.75C214.063 479.203 213.088 481.556 211.353 483.291C209.619 485.025 207.266 486 204.813 486ZM204.813 470.583C203.568 470.58 202.35 470.947 201.314 471.636C200.277 472.325 199.469 473.306 198.99 474.456C198.512 475.605 198.385 476.87 198.626 478.091C198.867 479.312 199.465 480.434 200.344 481.316C201.223 482.197 202.344 482.797 203.564 483.041C204.785 483.285 206.05 483.162 207.201 482.686C208.351 482.21 209.334 481.404 210.026 480.369C210.718 479.335 211.087 478.118 211.087 476.873C211.093 476.045 210.936 475.223 210.623 474.456C210.311 473.688 209.85 472.99 209.267 472.401C208.684 471.812 207.99 471.345 207.226 471.025C206.461 470.705 205.641 470.539 204.813 470.537V470.583Z" fill="white" fill-opacity="0.1"/>
<path d="M177.001 486C175.168 486.015 173.372 485.486 171.841 484.479C170.31 483.472 169.112 482.032 168.4 480.344C167.688 478.655 167.494 476.793 167.842 474.993C168.19 473.194 169.065 471.538 170.356 470.237C171.646 468.936 173.294 468.047 175.091 467.684C176.887 467.321 178.751 467.499 180.446 468.197C182.14 468.895 183.59 470.08 184.609 471.603C185.629 473.126 186.174 474.917 186.174 476.75C186.174 479.19 185.21 481.531 183.492 483.264C181.774 484.996 179.441 485.98 177.001 486ZM177.001 470.583C175.756 470.58 174.539 470.947 173.502 471.636C172.466 472.325 171.657 473.307 171.179 474.456C170.7 475.605 170.574 476.87 170.814 478.091C171.055 479.312 171.653 480.434 172.532 481.316C173.411 482.197 174.532 482.797 175.753 483.041C176.973 483.285 178.239 483.162 179.389 482.686C180.539 482.21 181.523 481.404 182.214 480.37C182.906 479.335 183.276 478.118 183.276 476.873C183.282 476.045 183.124 475.223 182.811 474.456C182.499 473.688 182.038 472.99 181.455 472.401C180.872 471.812 180.178 471.345 179.414 471.025C178.65 470.705 177.83 470.539 177.001 470.537V470.583Z" fill="white" fill-opacity="0.1"/>
<path d="M149.174 470.537C148.789 470.537 148.421 470.384 148.149 470.113C147.877 469.841 147.725 469.472 147.725 469.088V447.505C147.725 447.12 147.877 446.752 148.149 446.48C148.421 446.208 148.789 446.055 149.174 446.055H204.813C205.197 446.055 205.565 446.208 205.837 446.48C206.109 446.752 206.262 447.12 206.262 447.505C206.262 447.889 206.109 448.258 205.837 448.529C205.565 448.801 205.197 448.954 204.813 448.954H150.623V469.134C150.611 469.51 150.453 469.867 150.182 470.129C149.912 470.391 149.55 470.537 149.174 470.537Z" fill="white" fill-opacity="0.1"/>
<path d="M204.812 470.537C204.428 470.537 204.059 470.384 203.788 470.113C203.516 469.841 203.363 469.472 203.363 469.088V447.505C203.363 447.314 203.401 447.126 203.474 446.95C203.546 446.774 203.653 446.614 203.788 446.48C203.922 446.345 204.082 446.239 204.258 446.166C204.434 446.093 204.622 446.055 204.812 446.055C205.003 446.055 205.191 446.093 205.367 446.166C205.543 446.239 205.703 446.345 205.837 446.48C205.972 446.614 206.078 446.774 206.151 446.95C206.224 447.126 206.262 447.314 206.262 447.505V469.088C206.262 469.472 206.109 469.841 205.837 470.113C205.565 470.384 205.197 470.537 204.812 470.537Z" fill="white" fill-opacity="0.1"/>
<path d="M177 455.09C176.616 455.09 176.247 454.937 175.975 454.665C175.703 454.393 175.551 454.025 175.551 453.64V435.14C175.551 434.756 175.703 434.387 175.975 434.116C176.247 433.844 176.616 433.691 177 433.691C177.384 433.691 177.753 433.844 178.025 434.116C178.296 434.387 178.449 434.756 178.449 435.14V453.64C178.449 454.025 178.296 454.393 178.025 454.665C177.753 454.937 177.384 455.09 177 455.09Z" fill="white" fill-opacity="0.1"/>
<path d="M177 461.272C176.404 461.275 175.821 461.101 175.324 460.771C174.827 460.442 174.44 459.973 174.21 459.423C173.981 458.873 173.92 458.267 174.036 457.683C174.151 457.098 174.438 456.561 174.859 456.14C175.28 455.718 175.817 455.432 176.402 455.316C176.987 455.201 177.592 455.262 178.142 455.491C178.692 455.72 179.162 456.108 179.491 456.605C179.82 457.102 179.994 457.685 179.991 458.281C179.991 459.074 179.676 459.835 179.115 460.396C178.554 460.957 177.793 461.272 177 461.272ZM177 458.188L176.908 458.296C176.908 458.321 176.917 458.344 176.935 458.362C176.952 458.379 176.976 458.389 177 458.389V458.188Z" fill="white" fill-opacity="0.1"/>
</g>
<g clip-path="url(#clip1_113_1027)">
<path d="M129 60.0062L111.128 42.0001H45.7677V61.8606C39.2153 64.1907 33.148 67.7073 27.869 72.2345L22.1715 66.1069L20.8009 67.4507C14.2882 73.4885 9.09257 80.8063 5.53948 88.9454C1.9864 97.0846 0.152344 105.87 0.152344 114.751C0.152344 123.632 1.9864 132.417 5.53948 140.556C9.09257 148.695 14.2882 156.013 20.8009 162.051L22.3058 163.448L28.0033 157.321C38.1849 166.096 51.1792 170.923 64.6205 170.923C78.0618 170.923 91.0561 166.096 101.238 157.321L106.935 163.448L108.467 162.051C114.647 156.324 119.642 149.439 123.168 141.787H129.134L129 60.0062ZM116.503 62.6937V66.8595H58.2377V54.3895H108.172V62.6937H116.503ZM112.337 58.5281V49.0145L121.797 58.5281H112.337ZM64.4996 154.257C55.6831 154.282 47.1111 151.359 40.1466 145.952C33.1821 140.546 28.2247 132.967 26.0623 124.42C23.9 115.872 24.657 106.848 28.2128 98.7798C31.7686 90.7121 37.9194 84.0645 45.6871 79.8938V141.706H93.3634C89.6927 145.702 85.2313 148.891 80.2623 151.07C75.2933 153.249 69.9254 154.371 64.4996 154.364V154.257ZM45.6871 66.1876V75.5132C42.294 77.1004 39.1227 79.1241 36.254 81.5331L30.6103 75.4325C35.1007 71.539 40.228 68.4481 45.7677 66.2951L45.6871 66.1876ZM21.9027 157.563C16.2488 151.958 11.7612 145.29 8.69857 137.941C5.63595 130.593 4.05909 122.711 4.05909 114.751C4.05909 106.79 5.63595 98.908 8.69857 91.5599C11.7612 84.2118 16.2488 77.5431 21.9027 71.9387L33.2171 84.1668C25.2024 92.3237 20.7116 103.302 20.7116 114.737C20.7116 126.173 25.2024 137.151 33.2171 145.307L21.9027 157.563ZM64.4996 166.888C52.1039 166.887 40.119 162.444 30.7177 154.364L36.3614 148.264C44.2317 154.908 54.1995 158.553 64.4996 158.553C74.7997 158.553 84.7674 154.908 92.6377 148.264L98.2546 154.311C88.8718 162.409 76.8943 166.872 64.4996 166.888ZM106.989 157.697L95.6746 145.388C96.7766 144.262 97.8174 143.078 98.7922 141.841H118.357C115.451 147.69 111.611 153.028 106.989 157.643V157.697ZM49.9334 137.756V46.1657H108.172V50.3313H54.0721V71.1325H120.668V62.8013H124.834V137.702L49.9334 137.756Z" fill="white" fill-opacity="0.1"/>
<path d="M62.4034 75.2981C60.7545 75.2981 59.1428 75.7875 57.7721 76.7042C56.4015 77.6208 55.3337 78.9235 54.7039 80.4474C54.0742 81.9713 53.9107 83.6478 54.2343 85.2647C54.558 86.8815 55.3541 88.3659 56.5219 89.53C57.6897 90.6941 59.1767 91.4854 60.7946 91.8038C62.4125 92.1222 64.0886 91.9535 65.6104 91.3188C67.1323 90.6841 68.4316 89.612 69.3438 88.2384C70.256 86.8648 70.7401 85.2514 70.7348 83.6025C70.7277 81.3976 69.8468 79.2853 68.2851 77.7287C66.7235 76.1721 64.6084 75.2981 62.4034 75.2981ZM62.4034 87.7681C61.5774 87.7841 60.7653 87.5541 60.0704 87.1074C59.3755 86.6607 58.8291 86.0175 58.5006 85.2594C58.1722 84.5014 58.0767 83.6628 58.226 82.8503C58.3754 82.0378 58.7629 81.2879 59.3395 80.6962C59.916 80.1045 60.6553 79.6976 61.4637 79.5272C62.2721 79.3568 63.1129 79.4306 63.8792 79.7393C64.6455 80.0479 65.3028 80.5775 65.7674 81.2607C66.232 81.9438 66.483 82.7495 66.4885 83.5756C66.4957 84.6712 66.0711 85.7256 65.3065 86.5103C64.5419 87.2951 63.4989 87.747 62.4034 87.7681Z" fill="white" fill-opacity="0.1"/>
<path d="M120.67 77.3676H116.504V81.5332H120.67V77.3676Z" fill="white" fill-opacity="0.1"/>
<path d="M112.364 77.3676H74.9004V81.5332H112.364V77.3676Z" fill="white" fill-opacity="0.1"/>
<path d="M120.669 85.6987H74.9004V89.8644H120.669V85.6987Z" fill="white" fill-opacity="0.1"/>
<path d="M62.4035 96.0992C60.7557 96.0992 59.145 96.5879 57.775 97.5034C56.4049 98.4188 55.337 99.72 54.7064 101.242C54.0758 102.765 53.9109 104.44 54.2324 106.056C54.5538 107.672 55.3473 109.156 56.5124 110.322C57.6776 111.487 59.1621 112.28 60.7782 112.602C62.3943 112.923 64.0694 112.758 65.5917 112.128C67.1141 111.497 68.4152 110.429 69.3307 109.059C70.2461 107.689 70.7348 106.078 70.7348 104.431C70.7348 102.221 69.8571 100.102 68.2947 98.5395C66.7322 96.9771 64.613 96.0992 62.4035 96.0992ZM62.4035 108.569C61.5784 108.569 60.7721 108.324 60.0865 107.865C59.4009 107.406 58.867 106.754 58.5525 105.992C58.238 105.229 58.1571 104.39 58.32 103.581C58.483 102.772 58.8823 102.03 59.4676 101.449C60.0529 100.867 60.7976 100.473 61.6074 100.315C62.4172 100.157 63.2557 100.243 64.0164 100.563C64.7771 100.882 65.4258 101.42 65.8803 102.109C66.3347 102.798 66.5745 103.606 66.5692 104.431C66.5621 105.531 66.1201 106.583 65.3396 107.359C64.5592 108.134 63.5036 108.569 62.4035 108.569Z" fill="white" fill-opacity="0.1"/>
<path d="M120.669 98.1687H74.9004V102.334H120.669V98.1687Z" fill="white" fill-opacity="0.1"/>
<path d="M120.696 106.5H83.2324V110.666H120.696V106.5Z" fill="white" fill-opacity="0.1"/>
<path d="M79.066 106.5H74.9004V110.666H79.066V106.5Z" fill="white" fill-opacity="0.1"/>
<path d="M62.4035 116.901C60.7557 116.901 59.145 117.389 57.775 118.305C56.4049 119.22 55.337 120.521 54.7064 122.044C54.0758 123.566 53.9109 125.241 54.2324 126.857C54.5538 128.473 55.3473 129.958 56.5124 131.123C57.6776 132.288 59.1621 133.081 60.7782 133.403C62.3943 133.724 64.0694 133.559 65.5917 132.929C67.1141 132.298 68.4152 131.231 69.3307 129.86C70.2461 128.49 70.7348 126.88 70.7348 125.232C70.7348 123.022 69.8571 120.903 68.2947 119.341C66.7322 117.778 64.613 116.901 62.4035 116.901ZM62.4035 129.397C61.5763 129.413 60.7632 129.183 60.0676 128.735C59.3721 128.287 58.8257 127.642 58.498 126.883C58.1703 126.123 58.0762 125.283 58.2277 124.47C58.3792 123.656 58.7695 122.907 59.3487 122.316C59.9279 121.725 60.6699 121.321 61.4801 121.153C62.2903 120.986 63.1319 121.063 63.8978 121.376C64.6637 121.689 65.3192 122.223 65.7805 122.909C66.2419 123.596 66.4883 124.405 66.4885 125.232C66.4819 126.321 66.0518 127.364 65.2894 128.142C64.527 128.919 63.492 129.37 62.4035 129.397Z" fill="white" fill-opacity="0.1"/>
<path d="M120.669 118.997H74.9004V123.162H120.669V118.997Z" fill="white" fill-opacity="0.1"/>
<path d="M120.67 127.301H116.504V131.467H120.67V127.301Z" fill="white" fill-opacity="0.1"/>
<path d="M112.364 127.301H74.9004V131.467H112.364V127.301Z" fill="white" fill-opacity="0.1"/>
</g>
<g clip-path="url(#clip2_113_1027)">
<path d="M456.479 442.42H463.449V445.52H458.029V447.06H463.449V450.16H454.939V451.71H463.449V454.81H458.029V456.35H463.449V459.45H456.479V461H464.999V440.87H456.479V442.42Z" fill="white" fill-opacity="0.1"/>
<path d="M438.681 416.1H437.131V417.65H438.681V416.1Z" fill="white" fill-opacity="0.1"/>
<path d="M444.88 416.1H440.23V417.65H444.88V416.1Z" fill="white" fill-opacity="0.1"/>
<path d="M444.87 419.19H443.32V420.74H444.87V419.19Z" fill="white" fill-opacity="0.1"/>
<path d="M441.781 419.19H437.131V420.74H441.781V419.19Z" fill="white" fill-opacity="0.1"/>
<path d="M421.65 423.06H420.1V424.61H421.65V423.06Z" fill="white" fill-opacity="0.1"/>
<path d="M427.839 423.06H423.189V424.61H427.839V423.06Z" fill="white" fill-opacity="0.1"/>
<path d="M427.839 426.16H426.289V427.71H427.839V426.16Z" fill="white" fill-opacity="0.1"/>
<path d="M424.75 426.16H420.1V427.71H424.75V426.16Z" fill="white" fill-opacity="0.1"/>
<path d="M451.06 415.29V426.12H457.25V436.19H452.57C452.38 433.388 451.182 430.75 449.196 428.764C447.21 426.778 444.572 425.58 441.77 425.39V423.8H447.96V413H434.03V423.84H440.22V425.43C437.685 425.601 435.276 426.598 433.361 428.269C431.447 429.939 430.132 432.191 429.62 434.68H424.74V430.81H430.93V419.97H417V430.81H423.19V434.68H420.87C419.844 434.68 418.859 435.088 418.133 435.814C417.408 436.539 417 437.524 417 438.55V452.49C417 453.516 417.408 454.501 418.133 455.227C418.859 455.952 419.844 456.36 420.87 456.36H424.74V459.46H421.64V461H443.32V459.46H440.22V456.36H444.09C445.116 456.36 446.101 455.952 446.826 455.227C447.552 454.501 447.96 453.516 447.96 452.49V446.29C449.295 445.291 450.398 444.015 451.194 442.549C451.989 441.084 452.459 439.464 452.57 437.8H458.8V426.16H465V415.29H451.06ZM435.58 422.29V414.55H446.41V422.29H435.58ZM440.22 426.98V430.04H441.74V426.98C443.868 427.145 445.889 427.982 447.51 429.37L440.64 436.23H430.94C431.129 433.835 432.168 431.586 433.87 429.889C435.572 428.193 437.824 427.161 440.22 426.98ZM429.42 436.23C429.42 436.49 429.42 436.74 429.42 437C429.418 437.783 429.498 438.564 429.66 439.33H424.74V436.23H429.42ZM418.54 429.23V421.49H429.38V429.29L418.54 429.23ZM438.67 459.43H426.29V456.33H438.67V459.43ZM446.41 452.43C446.41 453.045 446.166 453.635 445.73 454.07C445.295 454.506 444.705 454.75 444.09 454.75H420.87C420.254 454.75 419.663 454.506 419.226 454.071C418.789 453.636 418.543 453.046 418.54 452.43V451.65H446.41V452.43ZM446.41 450.1H418.54V438.55C418.543 437.934 418.789 437.344 419.226 436.909C419.663 436.474 420.254 436.23 420.87 436.23H423.19V440.87H430.06C430.86 443.134 432.341 445.094 434.3 446.482C436.259 447.87 438.599 448.617 441 448.62C442.887 448.622 444.745 448.158 446.41 447.27V450.1ZM441 447.01C439.012 447.009 437.07 446.419 435.417 445.316C433.764 444.213 432.474 442.645 431.71 440.81H434.03V439.29H431.21C431.09 438.78 431.009 438.262 430.97 437.74H440.67L447.54 444.6C445.728 446.183 443.406 447.06 441 447.07V447.01ZM451 437.72C450.838 439.846 450 441.864 448.61 443.48L442.07 436.94L448.61 430.4C449.998 432.021 450.835 434.042 451 436.17H447.94V437.72H451ZM463.43 424.56H452.61V416.81H463.45L463.43 424.56Z" fill="white" fill-opacity="0.1"/>
<path d="M455.71 418.42H454.16V419.97H455.71V418.42Z" fill="white" fill-opacity="0.1"/>
<path d="M461.91 418.42H457.26V419.97H461.91V418.42Z" fill="white" fill-opacity="0.1"/>
<path d="M461.9 421.52H460.35V423.07H461.9V421.52Z" fill="white" fill-opacity="0.1"/>
<path d="M458.81 421.52H454.16V423.07H458.81V421.52Z" fill="white" fill-opacity="0.1"/>
<path d="M456.489 445.52H454.939V447.07H456.489V445.52Z" fill="white" fill-opacity="0.1"/>
<path d="M456.489 454.81H454.939V456.36H456.489V454.81Z" fill="white" fill-opacity="0.1"/>
</g>
<g clip-path="url(#clip3_113_1027)">
<path d="M910.001 274C906.066 273.99 902.257 272.618 899.222 270.116C896.187 267.614 894.113 264.137 893.354 260.279C892.596 256.42 893.199 252.418 895.061 248.954C896.923 245.489 899.929 242.778 903.567 241.28C907.205 239.783 911.249 239.593 915.012 240.742C918.774 241.891 922.022 244.308 924.201 247.582C926.381 250.856 927.357 254.784 926.964 258.697C926.572 262.61 924.834 266.266 922.047 269.042C920.468 270.625 918.59 271.879 916.522 272.73C914.454 273.581 912.237 274.013 910.001 274ZM910.001 241.155C906.333 241.158 902.781 242.433 899.948 244.762C897.116 247.09 895.179 250.328 894.467 253.924C893.755 257.52 894.313 261.252 896.045 264.483C897.776 267.714 900.575 270.245 903.965 271.645C907.354 273.044 911.124 273.226 914.633 272.159C918.141 271.092 921.171 268.842 923.205 265.792C925.24 262.743 926.154 259.082 925.792 255.434C925.43 251.786 923.813 248.377 921.218 245.787C919.745 244.315 917.996 243.148 916.071 242.354C914.146 241.559 912.083 241.151 910.001 241.155Z" fill="white" fill-opacity="0.1"/>
<path d="M910 265.486C908.318 265.486 906.674 264.987 905.275 264.053C903.877 263.119 902.787 261.792 902.143 260.239C901.5 258.685 901.331 256.976 901.659 255.328C901.988 253.679 902.797 252.164 903.987 250.975C905.176 249.787 906.691 248.977 908.341 248.649C909.99 248.321 911.7 248.49 913.254 249.133C914.808 249.776 916.136 250.866 917.07 252.264C918.004 253.661 918.503 255.305 918.503 256.986C918.503 259.24 917.607 261.402 916.013 262.996C914.418 264.59 912.255 265.486 910 265.486ZM910 249.662C908.548 249.662 907.128 250.092 905.921 250.898C904.714 251.705 903.773 252.851 903.217 254.192C902.661 255.533 902.516 257.008 902.799 258.432C903.083 259.855 903.782 261.163 904.808 262.189C905.835 263.215 907.143 263.914 908.567 264.197C909.991 264.481 911.468 264.335 912.809 263.78C914.151 263.224 915.297 262.284 916.104 261.077C916.91 259.87 917.341 258.451 917.341 257C917.339 255.054 916.565 253.189 915.189 251.813C913.812 250.437 911.946 249.664 910 249.662Z" fill="white" fill-opacity="0.1"/>
<path d="M910 249.662C909.85 249.662 909.706 249.602 909.599 249.496C909.493 249.389 909.433 249.245 909.433 249.095V240.595C909.424 240.515 909.432 240.434 909.457 240.357C909.481 240.28 909.522 240.209 909.576 240.149C909.63 240.089 909.696 240.041 909.769 240.008C909.843 239.975 909.923 239.958 910.004 239.958C910.084 239.958 910.164 239.975 910.238 240.008C910.312 240.041 910.378 240.089 910.431 240.149C910.485 240.209 910.526 240.28 910.55 240.357C910.575 240.434 910.583 240.515 910.574 240.595V249.095C910.574 249.17 910.559 249.244 910.53 249.314C910.501 249.383 910.459 249.446 910.406 249.498C910.352 249.551 910.289 249.593 910.219 249.621C910.15 249.649 910.075 249.663 910 249.662Z" fill="white" fill-opacity="0.1"/>
<path d="M921.622 269.19C921.47 269.189 921.325 269.128 921.218 269.02L915.195 263C915.104 262.889 915.058 262.75 915.065 262.607C915.072 262.465 915.132 262.331 915.233 262.23C915.333 262.129 915.468 262.069 915.61 262.062C915.753 262.055 915.892 262.102 916.003 262.192L922.026 268.213C922.08 268.266 922.122 268.328 922.151 268.398C922.18 268.467 922.195 268.541 922.195 268.617C922.195 268.692 922.18 268.766 922.151 268.835C922.122 268.905 922.08 268.968 922.026 269.02C921.974 269.075 921.911 269.118 921.842 269.147C921.772 269.176 921.697 269.191 921.622 269.19Z" fill="white" fill-opacity="0.1"/>
<path d="M898.379 269.19C898.266 269.19 898.156 269.156 898.062 269.093C897.968 269.029 897.895 268.94 897.852 268.836C897.809 268.731 897.798 268.617 897.819 268.506C897.841 268.395 897.895 268.293 897.975 268.213L904.005 262.192C904.058 262.139 904.121 262.096 904.19 262.067C904.26 262.038 904.334 262.023 904.409 262.023C904.484 262.023 904.559 262.038 904.628 262.067C904.697 262.096 904.76 262.139 904.813 262.192C904.919 262.3 904.979 262.445 904.979 262.596C904.979 262.747 904.919 262.892 904.813 263L898.783 269.02C898.73 269.075 898.668 269.118 898.598 269.147C898.529 269.176 898.454 269.191 898.379 269.19Z" fill="white" fill-opacity="0.1"/>
<path d="M900.533 267.037C900.383 267.036 900.238 266.978 900.129 266.874C897.516 264.253 896.049 260.704 896.049 257.004C896.049 253.303 897.516 249.754 900.129 247.133C900.237 247.026 900.382 246.967 900.533 246.967C900.685 246.967 900.83 247.026 900.937 247.133C901.044 247.24 901.103 247.385 901.103 247.537C901.103 247.688 901.044 247.833 900.937 247.94C898.537 250.346 897.189 253.606 897.189 257.004C897.189 260.401 898.537 263.661 900.937 266.067C901.044 266.174 901.103 266.319 901.103 266.47C901.103 266.622 901.044 266.767 900.937 266.874C900.828 266.978 900.684 267.036 900.533 267.037Z" fill="white" fill-opacity="0.1"/>
<path d="M903.303 246.623C903.068 246.623 902.84 246.554 902.645 246.424C902.45 246.294 902.299 246.109 902.209 245.893C902.12 245.677 902.096 245.439 902.142 245.209C902.188 244.98 902.3 244.769 902.466 244.604C902.631 244.438 902.842 244.325 903.072 244.28C903.301 244.234 903.539 244.258 903.755 244.347C903.972 244.437 904.157 244.588 904.287 244.783C904.417 244.977 904.486 245.206 904.486 245.44C904.486 245.754 904.361 246.055 904.139 246.276C903.917 246.498 903.616 246.623 903.303 246.623ZM903.303 245.405L903.267 245.44L903.303 245.475V245.405Z" fill="white" fill-opacity="0.1"/>
</g>
<g clip-path="url(#clip4_113_1027)">
<path d="M783.001 51H733.999C733.734 51 733.48 50.8948 733.293 50.7075C733.105 50.5202 733 50.2661 733 50.0012V0.998752C733 0.733868 733.105 0.47984 733.293 0.292538C733.48 0.105236 733.734 0 733.999 0H783.001C783.266 0 783.52 0.105236 783.707 0.292538C783.895 0.47984 784 0.733868 784 0.998752V50.0012C784 50.2661 783.895 50.5202 783.707 50.7075C783.52 50.8948 783.266 51 783.001 51ZM734.998 48.9919H782.002V1.9975H734.998V48.9919Z" fill="white" fill-opacity="0.1"/>
<path d="M765.96 46.7393H734C733.751 46.7137 733.521 46.5969 733.354 46.4114C733.186 46.226 733.094 45.9851 733.094 45.7353C733.094 45.4855 733.186 45.2445 733.354 45.0591C733.521 44.8736 733.751 44.7568 734 44.7312H765.96C766.208 44.7568 766.438 44.8736 766.606 45.0591C766.773 45.2445 766.866 45.4855 766.866 45.7353C766.866 45.9851 766.773 46.226 766.606 46.4114C766.438 46.5969 766.208 46.7137 765.96 46.7393Z" fill="white" fill-opacity="0.1"/>
<path d="M733.998 42.4788C733.782 42.4812 733.57 42.4132 733.396 42.2849C733.221 42.1566 733.093 41.975 733.031 41.7676C732.968 41.5601 732.975 41.338 733.05 41.1347C733.125 40.9314 733.264 40.758 733.446 40.6406L752.571 27.8906C752.73 27.7894 752.914 27.7357 753.102 27.7357C753.29 27.7357 753.475 27.7894 753.633 27.8906L767.935 36.0613L782.321 23.7363C782.518 23.5784 782.768 23.5013 783.021 23.5206C783.273 23.5399 783.508 23.6541 783.679 23.8401C783.851 24.0262 783.945 24.2703 783.943 24.5231C783.941 24.776 783.844 25.0188 783.67 25.2025L768.795 37.9525C768.638 38.0866 768.444 38.1688 768.238 38.1878C768.033 38.2069 767.827 38.1618 767.648 38.0588L753.262 29.8456L734.551 42.3088C734.388 42.4205 734.196 42.4798 733.998 42.4788Z" fill="white" fill-opacity="0.1"/>
<path d="M733.999 23.3006C733.857 23.301 733.718 23.2708 733.589 23.2121C733.461 23.1534 733.347 23.0676 733.255 22.9606C733.167 22.8624 733.1 22.7478 733.057 22.6235C733.014 22.4992 732.996 22.3677 733.004 22.2363C733.012 22.105 733.045 21.9766 733.103 21.8584C733.161 21.7401 733.241 21.6345 733.34 21.5474L752.465 4.54745C752.621 4.40936 752.817 4.32383 753.025 4.30286C753.233 4.2819 753.442 4.32657 753.623 4.43059L767.924 12.6012L782.311 0.276207C782.513 0.109808 782.772 0.0294569 783.033 0.0524428C783.294 0.0754286 783.535 0.199906 783.705 0.399098C783.875 0.598289 783.96 0.856252 783.942 1.11744C783.923 1.37863 783.803 1.62215 783.607 1.79557L768.732 14.5456C768.572 14.6735 768.379 14.7525 768.175 14.7733C767.972 14.794 767.766 14.7555 767.584 14.6624L753.294 6.49184L734.668 23.0774C734.477 23.2259 734.241 23.3046 733.999 23.3006Z" fill="white" fill-opacity="0.1"/>
<path d="M775.543 22.2381C775.399 22.2387 775.257 22.2077 775.127 22.1471C774.996 22.0865 774.881 21.9978 774.789 21.8875C774.702 21.7879 774.637 21.6723 774.595 21.5472C774.554 21.4222 774.538 21.2902 774.548 21.1588C774.558 21.0275 774.593 20.8994 774.653 20.7819C774.713 20.6644 774.795 20.5599 774.895 20.4744L776.138 19.4119C776.237 19.324 776.353 19.2568 776.479 19.2143C776.604 19.1717 776.737 19.1545 776.87 19.1638C777.002 19.1732 777.131 19.2087 777.25 19.2685C777.368 19.3282 777.473 19.411 777.559 19.5119C777.645 19.6128 777.711 19.7299 777.751 19.8562C777.791 19.9826 777.806 20.1157 777.794 20.2478C777.783 20.3799 777.745 20.5084 777.683 20.6257C777.621 20.7431 777.537 20.847 777.434 20.9313L776.234 22.015C776.04 22.1743 775.793 22.254 775.543 22.2381Z" fill="white" fill-opacity="0.1"/>
<path d="M733.999 32.8844C733.834 32.8858 733.672 32.8456 733.527 32.7676C733.382 32.6896 733.26 32.5763 733.17 32.4381C733.024 32.2181 732.972 31.9493 733.023 31.6905C733.075 31.4317 733.227 31.2039 733.446 31.0569L752.571 18.3069C752.733 18.2136 752.916 18.1646 753.103 18.1646C753.289 18.1646 753.472 18.2136 753.634 18.3069L767.935 26.4881L772.727 22.3763C772.919 22.1931 773.175 22.0936 773.44 22.0995C773.705 22.1055 773.957 22.2165 774.14 22.4081C774.323 22.5997 774.423 22.8563 774.417 23.1213C774.411 23.3863 774.3 23.6381 774.108 23.8213L768.796 28.39C768.639 28.5241 768.444 28.6063 768.239 28.6253C768.033 28.6443 767.827 28.5993 767.648 28.4963L753.262 20.2831L734.605 32.725C734.423 32.8378 734.212 32.8933 733.999 32.8844Z" fill="white" fill-opacity="0.1"/>
<path d="M772.345 47.8019C771.937 47.7914 771.541 47.6608 771.208 47.4264C770.874 47.192 770.616 46.8643 770.468 46.4843C770.32 46.1043 770.287 45.6889 770.374 45.2903C770.46 44.8917 770.663 44.5275 770.955 44.2435C771.248 43.9595 771.618 43.7682 772.02 43.6937C772.421 43.6192 772.835 43.6647 773.21 43.8246C773.585 43.9844 773.905 44.2516 774.129 44.5924C774.353 44.9333 774.472 45.3327 774.47 45.7406C774.47 46.0167 774.415 46.2901 774.307 46.5444C774.2 46.7988 774.042 47.0289 773.844 47.2212C773.646 47.4134 773.411 47.5639 773.153 47.6637C772.896 47.7634 772.621 47.8104 772.345 47.8019ZM772.345 45.6769V45.815L772.409 45.7512C772.409 45.7512 772.387 45.6663 772.345 45.6663V45.6769Z" fill="white" fill-opacity="0.1"/>
</g>
<defs>
<clipPath id="clip0_113_1027">
<rect width="74" height="74" fill="white" transform="translate(140 412)"/>
</clipPath>
<clipPath id="clip1_113_1027">
<rect width="129" height="129" fill="white" transform="translate(0 42)"/>
</clipPath>
<clipPath id="clip2_113_1027">
<rect width="48" height="48" fill="white" transform="translate(417 413)"/>
</clipPath>
<clipPath id="clip3_113_1027">
<rect width="34" height="34" fill="white" transform="translate(893 240)"/>
</clipPath>
<clipPath id="clip4_113_1027">
<rect width="51" height="51" fill="white" transform="translate(733)"/>
</clipPath>
</defs>
</svg>
