<svg width="16" height="16" viewBox="0 0 16 16" fill="none" xmlns="http://www.w3.org/2000/svg">
<path fill-rule="evenodd" clip-rule="evenodd" d="M13.3333 14V14C14.07 14 14.6667 13.4033 14.6667 12.6667V3.33333C14.6667 2.59667 14.07 2 13.3333 2V2C12.5967 2 12 2.59667 12 3.33333V12.6667C12 13.4033 12.5967 14 13.3333 14Z" stroke="#32A89C" stroke-width="1.5" stroke-linecap="round" stroke-linejoin="round"/>
<path fill-rule="evenodd" clip-rule="evenodd" d="M7.99935 14V14C8.73602 14 9.33268 13.4033 9.33268 12.6666V7.12264C9.33268 6.38597 8.73602 5.78931 7.99935 5.78931V5.78931C7.26268 5.78931 6.66602 6.38597 6.66602 7.12264V12.6666C6.66602 13.4033 7.26268 14 7.99935 14Z" stroke="#32A89C" stroke-width="1.5" stroke-linecap="round" stroke-linejoin="round"/>
<path fill-rule="evenodd" clip-rule="evenodd" d="M2.66732 13.9999V13.9999C3.40398 13.9999 4.00065 13.4033 4.00065 12.6666V10.9119C4.00065 10.1753 3.40398 9.57861 2.66732 9.57861V9.57861C1.93065 9.57861 1.33398 10.1753 1.33398 10.9119V12.6666C1.33398 13.4033 1.93065 13.9999 2.66732 13.9999Z" stroke="#32A89C" stroke-width="1.5" stroke-linecap="round" stroke-linejoin="round"/>
</svg>