<svg width="16" height="17" viewBox="0 0 16 17" fill="none" xmlns="http://www.w3.org/2000/svg">
<mask id="mask0_332_958" style="mask-type:alpha" maskUnits="userSpaceOnUse" x="2" y="3" width="12" height="11">
<path d="M12.5267 7.8332L5.08003 7.8332L8.33336 4.57987C8.59336 4.31987 8.59336 3.8932 8.33336 3.6332C8.07336 3.3732 7.65336 3.3732 7.39336 3.6332L3.00003 8.02653C2.74003 8.28653 2.74003 8.70653 3.00003 8.96653L7.38669 13.3665C7.51125 13.4914 7.68035 13.5615 7.85669 13.5615C8.03304 13.5615 8.20214 13.4914 8.32669 13.3665C8.58669 13.1065 8.58669 12.6865 8.32669 12.4265L5.08003 9.16653L12.5267 9.16653C12.8934 9.16653 13.1934 8.86653 13.1934 8.49987C13.1934 8.1332 12.8934 7.8332 12.5267 7.8332Z" fill="black"/>
</mask>
<g mask="url(#mask0_332_958)">
<rect x="16" y="16.5" width="16" height="16" transform="rotate(-180 16 16.5)" fill="white" fill-opacity="0.64"/>
</g>
</svg>
