<svg width="20" height="20" viewBox="0 0 20 20" fill="none" xmlns="http://www.w3.org/2000/svg">
<mask id="mask0_268_798" style="mask-type:alpha" maskUnits="userSpaceOnUse" x="3" y="3" width="14" height="14">
<path d="M15.6589 9.20836L6.35052 9.20836L10.4172 5.34503C10.7422 5.03628 10.7422 4.52961 10.4172 4.22086C10.0922 3.91211 9.56719 3.91211 9.24219 4.22086L3.75052 9.43794C3.42552 9.74669 3.42552 10.2454 3.75052 10.5542L9.23385 15.7792C9.38955 15.9274 9.60092 16.0107 9.82135 16.0107C10.0418 16.0107 10.2532 15.9274 10.4089 15.7792C10.7339 15.4704 10.7339 14.9717 10.4089 14.6629L6.35052 10.7917L15.6589 10.7917C16.1172 10.7917 16.4922 10.4354 16.4922 10C16.4922 9.56461 16.1172 9.20836 15.6589 9.20836Z" fill="black"/>
</mask>
<g mask="url(#mask0_268_798)">
<rect x="20" y="19.5" width="20" height="19" transform="rotate(-180 20 19.5)" fill="#32A89C"/>
</g>
</svg>
