<svg width="12" height="12" viewBox="0 0 12 12" fill="none" xmlns="http://www.w3.org/2000/svg">
<path fill-rule="evenodd" clip-rule="evenodd" d="M5.5 9.69599V3.75149C5.5 3.40649 5.3225 3.08599 5.03 2.90349L3.03 1.65349C2.364 1.23749 1.5 1.71599 1.5 2.50149V8.44549C1.5 8.79049 1.6775 9.11099 1.97 9.29349L3.97 10.5435C4.636 10.96 5.5 10.481 5.5 9.69599Z" stroke="white" stroke-opacity="0.64" stroke-width="1.5" stroke-linecap="round" stroke-linejoin="round"/>
<path d="M7.5 5.5H10.5" stroke="white" stroke-opacity="0.64" stroke-width="1.5" stroke-linecap="round" stroke-linejoin="round"/>
<path d="M9.5 6.5L10.5 5.5L9.5 4.5" stroke="white" stroke-opacity="0.64" stroke-width="1.5" stroke-linecap="round" stroke-linejoin="round"/>
<path d="M5.5 9.5H7.5C8.0525 9.5 8.5 9.0525 8.5 8.5V8" stroke="white" stroke-opacity="0.64" stroke-width="1.5" stroke-linecap="round" stroke-linejoin="round"/>
<path d="M8.5 3V2.5C8.5 1.9475 8.0525 1.5 7.5 1.5H2.5" stroke="white" stroke-opacity="0.64" stroke-width="1.5" stroke-linecap="round" stroke-linejoin="round"/>
</svg>
