
<svg id="Layer_1" data-name="Layer 1" xmlns="http://www.w3.org/2000/svg" viewBox="0 0 891.67 199.59">
  <path class="cls-1" d="M82.89 504.75v55.81h-20.7v-55.81h-7.8v-17.64h7.8v-18.32c0-7.63-.17-14.08 5.43-21.71 5.43-7.3 15.27-12.22 29.35-12.22 9.32 0 22.9 2 29.68 12.22 5.6 8.31 5.09 16.28 5.09 21.71v4.92h-20.69v-4.41c0-3.39-.17-7-2.22-10.18-3.21-5.09-8.31-5.6-11.86-5.6-3.23 0-8.49.51-11.71 5.6-1.86 2.89-2.37 7-2.37 10.18v17.81h10v17.64Zm48.85-17.64v73.45h-20.69v-73.45ZM159.88 487.11h20.7v9.5c3.9-5.43 10.86-11.88 22.73-11.88 6.44 0 15.95 1.87 21.71 9 5.09 6.28 5.77 13.58 5.77 20.7v46.14h-20.7v-40c0-4.07-.17-10.52-3.89-14.42-3.23-3.39-7.64-3.73-9.67-3.73-5.43 0-9.67 1.86-12.72 6.44-3.06 4.75-3.23 10-3.23 14.25v37.49h-20.7ZM311.91 487.11h20.69v70.06c0 11.19-1 22.9-10.18 32.06-5.09 5.09-13.91 10.34-29 10.34-14.25 0-22.73-4.24-27.48-8.48-5.76-4.92-10.17-13.57-11.87-21.88h22.39a17.6 17.6 0 0 0 5.09 8.82c4.07 3.73 9.67 3.9 12.55 3.9 5.94 0 9.84-2 12.55-4.58 4.76-4.58 5.27-10.34 5.27-16.28v-10.35a25.74 25.74 0 0 1-22.56 12.21c-9.85 0-18.33-3-25.45-10a40.36 40.36 0 0 1-11.71-29.18c0-11.54 4.24-22.22 11.37-29.18a36 36 0 0 1 25.28-9.84c13.73 0 20.18 7.47 23.07 11.88Zm-31.73 21c-3.39 3.06-6.61 8-6.61 15.61a20.44 20.44 0 0 0 5.43 14.45 20.12 20.12 0 0 0 14.93 6.44 20.76 20.76 0 0 0 13.74-5.09 21.59 21.59 0 0 0 6.62-15.77 20.88 20.88 0 0 0-5.95-14.75 18.85 18.85 0 0 0-14.42-5.94 20 20 0 0 0-13.74 5.08ZM429.83 540c-2.21 5.43-10.52 22.9-36.14 22.9-11.87 0-20.86-3.39-28.16-10.34C357.39 545 354 535.45 354 523.92c0-14.59 5.94-23.58 11.2-28.84 8.65-8.48 18.82-10.35 27.64-10.35 14.93 0 23.58 5.94 28.67 12 7.81 9.33 8.82 20.86 8.82 28.84v1.69h-55c0 4.41 1.19 9.16 3.56 12.38 2.21 3.06 6.79 7 14.76 7 7.81 0 13.74-3.73 17.13-9.67Zm-19-25.95c-1.69-10-9.84-14.76-17.47-14.76a17.29 17.29 0 0 0-17.3 14.76ZM451.73 487.11h20.69v11a24.72 24.72 0 0 1 9.17-10.11 22.45 22.45 0 0 1 12.21-3.23 25.45 25.45 0 0 1 8.82 1.7l-2.71 19.34c-2.72-1.87-5.43-2.72-9.67-2.72-3.91 0-9.67.85-13.74 5.94-3.91 4.92-4.08 11.2-4.08 16.28v35.29h-20.69ZM542 599.4h-20.73V487.11H542v9.5c3.22-4.58 10.35-11.88 23.92-11.88 6.45 0 16.8 1.53 25.11 9.84 5.42 5.43 11 14.59 11 29.18 0 16.62-7.29 25.61-11.53 29.68a36 36 0 0 1-24.94 9.5A27.84 27.84 0 0 1 542 551.06Zm4.88-91.4c-4.58 3.9-7 9-7 15.78a20.86 20.86 0 0 0 6.78 15.94 20.1 20.1 0 0 0 13.58 4.92 19.58 19.58 0 0 0 13.9-5.26 21.49 21.49 0 0 0 6.45-15.6 22.08 22.08 0 0 0-6.28-15.44 21.63 21.63 0 0 0-14.07-5.26 18.76 18.76 0 0 0-13.36 4.92ZM623.42 487.11h20.69v11a24.66 24.66 0 0 1 9.16-10.11 22.45 22.45 0 0 1 12.21-3.23 25.4 25.4 0 0 1 8.82 1.7l-2.71 19.34c-2.72-1.87-5.43-2.72-9.67-2.72-3.9 0-9.67.85-13.74 5.94-3.9 4.92-4.07 11.2-4.07 16.28v35.29h-20.69ZM713.64 487.11v73.45H693v-73.45ZM741.8 487.11h20.69v9.5c3.91-5.43 10.86-11.88 22.73-11.88 6.45 0 15.95 1.87 21.72 9 5.08 6.28 5.76 13.58 5.76 20.7v46.14H792v-40c0-4.07-.17-10.52-3.9-14.42-3.22-3.39-7.64-3.73-9.67-3.73-5.43 0-9.67 1.86-12.73 6.44-3.05 4.75-3.22 10-3.22 14.25v37.49H741.8ZM861.55 504.75v55.81h-20.69v-55.81h-8.15v-17.64h8.15V462h20.69v25.1h14.25v17.64ZM932.15 504.58a17.2 17.2 0 0 0-12-4.92c-4.92 0-8 2.38-8 5.94 0 1.87.84 4.75 6.61 6.61l4.92 1.53c5.77 1.87 14.42 4.75 18.66 10.52a21.24 21.24 0 0 1 3.74 12.21 24.41 24.41 0 0 1-8.15 18.66c-5.93 5.43-13.06 7.8-22 7.8-15.27 0-23.92-7.29-28.5-12.21l10.86-12.55c4.07 4.75 10.18 8.48 16.28 8.48 5.77 0 10.18-2.88 10.18-8 0-4.58-3.73-6.45-6.44-7.47l-4.75-1.69c-5.26-1.87-11.37-4.25-15.78-8.82a19.74 19.74 0 0 1-5.6-14.08 21.84 21.84 0 0 1 7.57-16.59c5.76-4.58 13.22-5.26 19.16-5.26a36.62 36.62 0 0 1 23.41 7.81Z" transform="translate(-54.39 -399.98)"/>
  <path d="M703.3 411.49a11.87 11.87 0 1 1-11.87 11.87 11.87 11.87 0 0 1 11.87-11.87m0-11.51a23.38 23.38 0 1 0 23.37 23.38A23.41 23.41 0 0 0 703.3 400Z" transform="translate(-54.39 -399.98)" style="fill:#32a89c"/>
</svg>
