<svg width="16" height="17" viewBox="0 0 16 17" fill="none" xmlns="http://www.w3.org/2000/svg">
<mask id="mask0_429_1098" style="mask-type:alpha" maskUnits="userSpaceOnUse" x="2" y="3" width="12" height="11">
<path d="M3.47331 9.1668H10.92L7.66664 12.4201C7.40664 12.6801 7.40664 13.1068 7.66664 13.3668C7.92664 13.6268 8.34664 13.6268 8.60664 13.3668L13 8.97347C13.26 8.71347 13.26 8.29347 13 8.03347L8.61331 3.63347C8.48875 3.50863 8.31965 3.43848 8.14331 3.43848C7.96696 3.43848 7.79786 3.50863 7.67331 3.63347C7.41331 3.89347 7.41331 4.31347 7.67331 4.57347L10.92 7.83347H3.47331C3.10664 7.83347 2.80664 8.13347 2.80664 8.50013C2.80664 8.8668 3.10664 9.1668 3.47331 9.1668Z" fill="black"/>
</mask>
<g mask="url(#mask0_429_1098)">
<rect y="0.5" width="16" height="16" fill="white" fill-opacity="0.64"/>
</g>
</svg>
