<svg width="16" height="16" viewBox="0 0 16 16" fill="none" xmlns="http://www.w3.org/2000/svg">
<mask id="mask0_234_98" style="mask-type:alpha" maskUnits="userSpaceOnUse" x="2" y="2" width="12" height="12">
<path d="M3.47331 8.66668H10.92L7.66664 11.92C7.40664 12.18 7.40664 12.6067 7.66664 12.8667C7.92664 13.1267 8.34664 13.1267 8.60664 12.8667L13 8.47334C13.26 8.21334 13.26 7.79334 13 7.53334L8.61331 3.13334C8.48875 3.00851 8.31965 2.93835 8.14331 2.93835C7.96696 2.93835 7.79786 3.00851 7.67331 3.13334C7.41331 3.39334 7.41331 3.81334 7.67331 4.07334L10.92 7.33334H3.47331C3.10664 7.33334 2.80664 7.63334 2.80664 8.00001C2.80664 8.36668 3.10664 8.66668 3.47331 8.66668Z" fill="black"/>
</mask>
<g mask="url(#mask0_234_98)">
<rect width="16" height="16" fill="#32A89C"/>
</g>
</svg>
